<svg width="20" height="20" viewBox="0 0 20 20" fill="none" xmlns="http://www.w3.org/2000/svg">
<path d="M9.99992 0.833334C8.18693 0.833334 6.41465 1.37095 4.9072 2.3782C3.39974 3.38544 2.22483 4.81708 1.53103 6.49207C0.837224 8.16706 0.655693 10.0102 1.00939 11.7883C1.36309 13.5665 2.23613 15.1998 3.51811 16.4818C4.80009 17.7638 6.43344 18.6368 8.21159 18.9905C9.98975 19.3442 11.8329 19.1627 13.5079 18.4689C15.1828 17.7751 16.6145 16.6002 17.6217 15.0927C18.629 13.5853 19.1666 11.813 19.1666 10C19.1637 7.56973 18.197 5.23982 16.4786 3.52136C14.7601 1.80289 12.4302 0.836201 9.99992 0.833334ZM13.5349 12.3575C13.6145 12.4344 13.678 12.5263 13.7217 12.628C13.7653 12.7297 13.7883 12.839 13.7893 12.9497C13.7903 13.0603 13.7692 13.17 13.7273 13.2725C13.6854 13.3749 13.6235 13.4679 13.5453 13.5462C13.467 13.6244 13.374 13.6863 13.2716 13.7282C13.1691 13.7701 13.0594 13.7912 12.9488 13.7902C12.8381 13.7892 12.7288 13.7663 12.6271 13.7226C12.5254 13.6789 12.4335 13.6154 12.3566 13.5358L9.99992 11.1783L7.64326 13.5358C7.48609 13.6876 7.27559 13.7716 7.05709 13.7697C6.83859 13.7678 6.62958 13.6802 6.47507 13.5257C6.32057 13.3712 6.23293 13.1622 6.23103 12.9437C6.22913 12.7252 6.31312 12.5147 6.46492 12.3575L8.82159 10L6.46492 7.6425C6.38533 7.56563 6.32185 7.47367 6.27817 7.372C6.2345 7.27033 6.21151 7.16098 6.21055 7.05034C6.20959 6.93969 6.23067 6.82995 6.27257 6.72754C6.31447 6.62513 6.37635 6.53208 6.45459 6.45384C6.53284 6.37559 6.62588 6.31372 6.72829 6.27182C6.83071 6.22992 6.94044 6.20883 7.05109 6.20979C7.16174 6.21075 7.27109 6.23374 7.37276 6.27742C7.47443 6.32109 7.56638 6.38458 7.64326 6.46417L9.99992 8.82167L12.3566 6.46417C12.4335 6.38458 12.5254 6.32109 12.6271 6.27742C12.7288 6.23374 12.8381 6.21075 12.9488 6.20979C13.0594 6.20883 13.1691 6.22992 13.2716 6.27182C13.374 6.31372 13.467 6.37559 13.5453 6.45384C13.6235 6.53208 13.6854 6.62513 13.7273 6.72754C13.7692 6.82995 13.7903 6.93969 13.7893 7.05034C13.7883 7.16098 13.7653 7.27033 13.7217 7.372C13.678 7.47367 13.6145 7.56563 13.5349 7.6425L11.1783 10L13.5349 12.3575Z" fill="black"/>
</svg>
